# xmcd
#
# Track frame offsets:
#	150
#	13590
#	24871
#	35495
#	47947
#	58524
#	69552
#	80192
#	94447
#	106760
#	120940
#	132211
#	145143
#	156671
#	171531
#	185257
#	197464
#	208698
#	219552
#	234449
#	247569
#	259910
#	272143
#	285099
#	298163
#	311830
#	323383
#
# Disc length: 4481 seconds
#
# Revision: 0
# Processed by: cddbd v1.4PL0 Copyright (c) Steve Scherf et al.
# Submitted via: EasyCDDAExtractor 4.6.0.1
#
DISCID=86117f1b
DTITLE=Various Artist - A Million Dollars Worth Of Doo-Wop  Vol 18
DYEAR=1900
DGENRE=Blues
TTITLE0=Vibranaires - Doll Face
TTITLE1=Royals - Someday We'll Meet Again
TTITLE2=Royals - I Want You To Be My Baby
TTITLE3=Gaynotes - For Only A Moment
TTITLE4=Teeners - Why Do Fools Fall In Love
TTITLE5=Orbits - Message Of Love
TTITLE6=Orbits - I Really Do
TTITLE7=Five Blue Notes - The Beat Of Our Hearts
TTITLE8=Five Blue Notes - You Gotta Go Baby
TTITLE9=Chords - Daddy Loves Mommy
TTITLE10=Chords - In The Woods
TTITLE11=Inspirators - If Loving You Is Wrong
TTITLE12=Inspirators - Three-Sixty
TTITLE13=Serenaders - Please Please Forgive Me
TTITLE14=Serenaders - Baby
TTITLE15=Promineers - Shirley
TTITLE16=Magictones - Good Googa Mooga
TTITLE17=Magictones - When I Kneel Down To Pray
TTITLE18=Thrillers - The Drunkard
TTITLE19=Thrillers - Mattie, Leave Me Alone
TTITLE20=Danderliers - My Love
TTITLE21=Danderliers - She's Mine
TTITLE22=Kings - You Made Me Cry
TTITLE23=Kings - Baby Be There
TTITLE24=Cornell Blakely and group - Don't Touch The Moon
TTITLE25=Cornell Blakely and group - Promise To Be True
TTITLE26=Strollers - In Your Dreams
EXTD=
EXTT0=
EXTT1=
EXTT2=
EXTT3=
EXTT4=
EXTT5=
EXTT6=
EXTT7=
EXTT8=
EXTT9=
EXTT10=
EXTT11=
EXTT12=
EXTT13=
EXTT14=
EXTT15=
EXTT16=
EXTT17=
EXTT18=
EXTT19=
EXTT20=
EXTT21=
EXTT22=
EXTT23=
EXTT24=
EXTT25=
EXTT26=
PLAYORDER=
